<mxfile host="app.diagrams.net" agent="Mozilla/5.0 (Macintosh; Intel Mac OS X 10_15_7) AppleWebKit/537.36 (KHTML, like Gecko) Chrome/128.0.0.0 Safari/537.36" version="24.7.16">
  <diagram name="Page-1" id="c4acf3e9-155e-7222-9cf6-157b1a14988f">
    <mxGraphModel dx="340" dy="458" grid="0" gridSize="10" guides="1" tooltips="1" connect="1" arrows="1" fold="1" page="0" pageScale="1" pageWidth="850" pageHeight="1100" background="#ffffff" math="0" shadow="0">
      <root>
        <mxCell id="0" />
        <mxCell id="1" parent="0" />
        <mxCell id="-nk48S4TpL6KbgZUYX6O-1" value="&lt;p style=&quot;margin:0px;margin-top:4px;text-align:center;&quot;&gt;&lt;i&gt;&amp;lt;&amp;lt;Interface&amp;gt;&amp;gt;&lt;/i&gt;&lt;br&gt;&lt;b&gt;FlyBehavior&lt;/b&gt;&lt;/p&gt;&lt;hr size=&quot;1&quot;&gt;&lt;p style=&quot;margin:0px;margin-left:4px;&quot;&gt;&lt;/p&gt;&lt;p style=&quot;margin:0px;margin-left:4px;&quot;&gt;+ fly(): Unit&lt;br&gt;&lt;/p&gt;" style="verticalAlign=top;align=left;overflow=fill;fontSize=12;fontFamily=Helvetica;html=1;rounded=0;shadow=0;comic=0;labelBackgroundColor=none;strokeWidth=1;fillColor=#d5e8d4;strokeColor=#82b366;" vertex="1" parent="1">
          <mxGeometry x="910" y="511" width="140" height="78" as="geometry" />
        </mxCell>
        <mxCell id="-nk48S4TpL6KbgZUYX6O-10" style="rounded=1;orthogonalLoop=1;jettySize=auto;html=1;endArrow=block;endFill=1;endSize=13;" edge="1" parent="1" source="-nk48S4TpL6KbgZUYX6O-3" target="-nk48S4TpL6KbgZUYX6O-1">
          <mxGeometry relative="1" as="geometry">
            <mxPoint x="933" y="754" as="targetPoint" />
          </mxGeometry>
        </mxCell>
        <mxCell id="-nk48S4TpL6KbgZUYX6O-3" value="&lt;b&gt;FlyWithWings&lt;/b&gt;" style="swimlane;html=1;fontStyle=0;childLayout=stackLayout;horizontal=1;startSize=26;fillColor=#d5e8d4;horizontalStack=0;resizeParent=1;resizeLast=0;collapsible=1;marginBottom=0;swimlaneFillColor=#ffffff;rounded=0;shadow=0;comic=0;labelBackgroundColor=none;strokeWidth=1;fontFamily=Verdana;fontSize=10;align=center;strokeColor=#82b366;" vertex="1" parent="1">
          <mxGeometry x="850" y="624" width="120" height="70" as="geometry">
            <mxRectangle x="1080" y="825" width="90" height="30" as="alternateBounds" />
          </mxGeometry>
        </mxCell>
        <mxCell id="-nk48S4TpL6KbgZUYX6O-4" value="&lt;span style=&quot;text-wrap: nowrap;&quot;&gt;+ fly(): Unit { ... }&lt;br&gt;&lt;/span&gt;" style="text;html=1;strokeColor=#82b366;fillColor=#d5e8d4;align=left;verticalAlign=top;spacingLeft=4;spacingRight=4;whiteSpace=wrap;overflow=hidden;rotatable=0;points=[[0,0.5],[1,0.5]];portConstraint=eastwest;" vertex="1" parent="-nk48S4TpL6KbgZUYX6O-3">
          <mxGeometry y="26" width="120" height="44" as="geometry" />
        </mxCell>
        <mxCell id="-nk48S4TpL6KbgZUYX6O-7" value="&lt;b&gt;FlyNoWay&lt;/b&gt;" style="swimlane;html=1;fontStyle=0;childLayout=stackLayout;horizontal=1;startSize=26;fillColor=#d5e8d4;horizontalStack=0;resizeParent=1;resizeLast=0;collapsible=1;marginBottom=0;swimlaneFillColor=#ffffff;rounded=0;shadow=0;comic=0;labelBackgroundColor=none;strokeWidth=1;fontFamily=Verdana;fontSize=10;align=center;strokeColor=#82b366;" vertex="1" parent="1">
          <mxGeometry x="990" y="624" width="120" height="70" as="geometry">
            <mxRectangle x="1080" y="825" width="90" height="30" as="alternateBounds" />
          </mxGeometry>
        </mxCell>
        <mxCell id="-nk48S4TpL6KbgZUYX6O-8" value="&lt;span style=&quot;text-wrap: nowrap;&quot;&gt;+ fly(): Unit { ... }&amp;nbsp;&lt;/span&gt;" style="text;html=1;strokeColor=#82b366;fillColor=#d5e8d4;align=left;verticalAlign=top;spacingLeft=4;spacingRight=4;whiteSpace=wrap;overflow=hidden;rotatable=0;points=[[0,0.5],[1,0.5]];portConstraint=eastwest;" vertex="1" parent="-nk48S4TpL6KbgZUYX6O-7">
          <mxGeometry y="26" width="120" height="44" as="geometry" />
        </mxCell>
        <mxCell id="-nk48S4TpL6KbgZUYX6O-11" style="rounded=1;orthogonalLoop=1;jettySize=auto;html=1;endArrow=block;endFill=1;endSize=13;" edge="1" parent="1" source="-nk48S4TpL6KbgZUYX6O-7" target="-nk48S4TpL6KbgZUYX6O-1">
          <mxGeometry relative="1" as="geometry">
            <mxPoint x="855" y="797" as="sourcePoint" />
            <mxPoint x="950" y="764" as="targetPoint" />
          </mxGeometry>
        </mxCell>
        <mxCell id="-nk48S4TpL6KbgZUYX6O-12" value="&lt;p style=&quot;margin:0px;margin-top:4px;text-align:center;&quot;&gt;&lt;i&gt;&amp;lt;&amp;lt;Interface&amp;gt;&amp;gt;&lt;/i&gt;&lt;br&gt;&lt;b&gt;QuackBehavior&lt;/b&gt;&lt;br&gt;&lt;/p&gt;&lt;hr size=&quot;1&quot;&gt;&lt;p style=&quot;margin:0px;margin-left:4px;&quot;&gt;&lt;/p&gt;&lt;p style=&quot;margin:0px;margin-left:4px;&quot;&gt;+ quack(): Unit&lt;br&gt;&lt;/p&gt;" style="verticalAlign=top;align=left;overflow=fill;fontSize=12;fontFamily=Helvetica;html=1;rounded=0;shadow=0;comic=0;labelBackgroundColor=none;strokeWidth=1;fillColor=#e1d5e7;strokeColor=#9673a6;" vertex="1" parent="1">
          <mxGeometry x="1640" y="514" width="140" height="78" as="geometry" />
        </mxCell>
        <mxCell id="-nk48S4TpL6KbgZUYX6O-13" style="rounded=1;orthogonalLoop=1;jettySize=auto;html=1;endArrow=block;endFill=1;endSize=13;" edge="1" parent="1" source="-nk48S4TpL6KbgZUYX6O-14" target="-nk48S4TpL6KbgZUYX6O-12">
          <mxGeometry relative="1" as="geometry">
            <mxPoint x="1428" y="897" as="targetPoint" />
          </mxGeometry>
        </mxCell>
        <mxCell id="-nk48S4TpL6KbgZUYX6O-14" value="&lt;b&gt;Quack&lt;/b&gt;" style="swimlane;html=1;fontStyle=0;childLayout=stackLayout;horizontal=1;startSize=26;fillColor=#e1d5e7;horizontalStack=0;resizeParent=1;resizeLast=0;collapsible=1;marginBottom=0;swimlaneFillColor=#ffffff;rounded=0;shadow=0;comic=0;labelBackgroundColor=none;strokeWidth=1;fontFamily=Verdana;fontSize=10;align=center;strokeColor=#9673a6;" vertex="1" parent="1">
          <mxGeometry x="1645" y="624" width="130" height="70" as="geometry">
            <mxRectangle x="1080" y="825" width="90" height="30" as="alternateBounds" />
          </mxGeometry>
        </mxCell>
        <mxCell id="-nk48S4TpL6KbgZUYX6O-15" value="&lt;span style=&quot;text-wrap: nowrap;&quot;&gt;+&amp;nbsp;&lt;/span&gt;&lt;span style=&quot;text-wrap: nowrap;&quot;&gt;quack&lt;/span&gt;&lt;span style=&quot;text-wrap: nowrap;&quot;&gt;(): Unit { ... }&amp;nbsp;&lt;/span&gt;" style="text;html=1;strokeColor=#9673a6;fillColor=#e1d5e7;align=left;verticalAlign=top;spacingLeft=4;spacingRight=4;whiteSpace=wrap;overflow=hidden;rotatable=0;points=[[0,0.5],[1,0.5]];portConstraint=eastwest;" vertex="1" parent="-nk48S4TpL6KbgZUYX6O-14">
          <mxGeometry y="26" width="130" height="44" as="geometry" />
        </mxCell>
        <mxCell id="-nk48S4TpL6KbgZUYX6O-16" value="&lt;b&gt;Squeak&lt;/b&gt;" style="swimlane;html=1;fontStyle=0;childLayout=stackLayout;horizontal=1;startSize=26;fillColor=#e1d5e7;horizontalStack=0;resizeParent=1;resizeLast=0;collapsible=1;marginBottom=0;swimlaneFillColor=#ffffff;rounded=0;shadow=0;comic=0;labelBackgroundColor=none;strokeWidth=1;fontFamily=Verdana;fontSize=10;align=center;strokeColor=#9673a6;" vertex="1" parent="1">
          <mxGeometry x="1790" y="624" width="120" height="70" as="geometry">
            <mxRectangle x="1080" y="825" width="90" height="30" as="alternateBounds" />
          </mxGeometry>
        </mxCell>
        <mxCell id="-nk48S4TpL6KbgZUYX6O-17" value="&lt;span style=&quot;text-wrap: nowrap;&quot;&gt;+&amp;nbsp;&lt;/span&gt;&lt;span style=&quot;text-wrap: nowrap;&quot;&gt;quack&lt;/span&gt;&lt;span style=&quot;text-wrap: nowrap;&quot;&gt;(): Unit { ... }&amp;nbsp;&lt;/span&gt;" style="text;html=1;strokeColor=#9673a6;fillColor=#e1d5e7;align=left;verticalAlign=top;spacingLeft=4;spacingRight=4;whiteSpace=wrap;overflow=hidden;rotatable=0;points=[[0,0.5],[1,0.5]];portConstraint=eastwest;" vertex="1" parent="-nk48S4TpL6KbgZUYX6O-16">
          <mxGeometry y="26" width="120" height="44" as="geometry" />
        </mxCell>
        <mxCell id="-nk48S4TpL6KbgZUYX6O-18" style="rounded=1;orthogonalLoop=1;jettySize=auto;html=1;endArrow=block;endFill=1;endSize=13;" edge="1" parent="1" source="-nk48S4TpL6KbgZUYX6O-16" target="-nk48S4TpL6KbgZUYX6O-12">
          <mxGeometry relative="1" as="geometry">
            <mxPoint x="1350" y="940" as="sourcePoint" />
            <mxPoint x="1445" y="907" as="targetPoint" />
          </mxGeometry>
        </mxCell>
        <mxCell id="-nk48S4TpL6KbgZUYX6O-21" style="rounded=0;orthogonalLoop=1;jettySize=auto;html=1;endSize=13;" edge="1" parent="1" source="-nk48S4TpL6KbgZUYX6O-19" target="-nk48S4TpL6KbgZUYX6O-12">
          <mxGeometry relative="1" as="geometry" />
        </mxCell>
        <mxCell id="-nk48S4TpL6KbgZUYX6O-19" value="&lt;b&gt;MuteQuack&lt;/b&gt;" style="swimlane;html=1;fontStyle=0;childLayout=stackLayout;horizontal=1;startSize=26;fillColor=#e1d5e7;horizontalStack=0;resizeParent=1;resizeLast=0;collapsible=1;marginBottom=0;swimlaneFillColor=#ffffff;rounded=0;shadow=0;comic=0;labelBackgroundColor=none;strokeWidth=1;fontFamily=Verdana;fontSize=10;align=center;strokeColor=#9673a6;" vertex="1" parent="1">
          <mxGeometry x="1500" y="624" width="130" height="70" as="geometry">
            <mxRectangle x="1080" y="825" width="90" height="30" as="alternateBounds" />
          </mxGeometry>
        </mxCell>
        <mxCell id="-nk48S4TpL6KbgZUYX6O-20" value="&lt;span style=&quot;text-wrap: nowrap;&quot;&gt;+&amp;nbsp;&lt;/span&gt;&lt;span style=&quot;text-wrap: nowrap;&quot;&gt;quack&lt;/span&gt;&lt;span style=&quot;text-wrap: nowrap;&quot;&gt;(): Unit { ... }&amp;nbsp;&lt;/span&gt;" style="text;html=1;strokeColor=#9673a6;fillColor=#e1d5e7;align=left;verticalAlign=top;spacingLeft=4;spacingRight=4;whiteSpace=wrap;overflow=hidden;rotatable=0;points=[[0,0.5],[1,0.5]];portConstraint=eastwest;" vertex="1" parent="-nk48S4TpL6KbgZUYX6O-19">
          <mxGeometry y="26" width="130" height="44" as="geometry" />
        </mxCell>
        <mxCell id="-nk48S4TpL6KbgZUYX6O-25" style="edgeStyle=orthogonalEdgeStyle;rounded=0;orthogonalLoop=1;jettySize=auto;html=1;endArrow=openThin;endFill=0;endSize=13;" edge="1" parent="1" source="-nk48S4TpL6KbgZUYX6O-23" target="-nk48S4TpL6KbgZUYX6O-1">
          <mxGeometry relative="1" as="geometry" />
        </mxCell>
        <mxCell id="-nk48S4TpL6KbgZUYX6O-26" value="Использует" style="edgeLabel;html=1;align=center;verticalAlign=middle;resizable=0;points=[];" vertex="1" connectable="0" parent="-nk48S4TpL6KbgZUYX6O-25">
          <mxGeometry x="0.0661" y="1" relative="1" as="geometry">
            <mxPoint x="8" y="-1" as="offset" />
          </mxGeometry>
        </mxCell>
        <mxCell id="-nk48S4TpL6KbgZUYX6O-27" style="edgeStyle=orthogonalEdgeStyle;rounded=0;orthogonalLoop=1;jettySize=auto;html=1;endArrow=open;endFill=0;endSize=13;" edge="1" parent="1" source="-nk48S4TpL6KbgZUYX6O-23" target="-nk48S4TpL6KbgZUYX6O-12">
          <mxGeometry relative="1" as="geometry">
            <mxPoint x="1510" y="550.0666666666666" as="sourcePoint" />
          </mxGeometry>
        </mxCell>
        <mxCell id="-nk48S4TpL6KbgZUYX6O-28" value="Использует" style="edgeLabel;html=1;align=center;verticalAlign=middle;resizable=0;points=[];" vertex="1" connectable="0" parent="-nk48S4TpL6KbgZUYX6O-27">
          <mxGeometry x="-0.1152" y="1" relative="1" as="geometry">
            <mxPoint as="offset" />
          </mxGeometry>
        </mxCell>
        <mxCell id="-nk48S4TpL6KbgZUYX6O-23" value="&lt;p style=&quot;margin:0px;margin-top:4px;text-align:center;&quot;&gt;&lt;i&gt;&amp;lt;&amp;lt;Abstract&amp;gt;&amp;gt;&lt;/i&gt;&lt;br&gt;&lt;b&gt;Duck&lt;/b&gt;&lt;/p&gt;&lt;hr size=&quot;1&quot;&gt;&lt;p style=&quot;margin:0px;margin-left:4px;&quot;&gt;+ flyBehavior: FlyBehavior&lt;br&gt;+ quackBehavior: QuackBehavior&lt;/p&gt;&lt;hr size=&quot;1&quot;&gt;&lt;p style=&quot;margin:0px;margin-left:4px;&quot;&gt;+ display(): Unit&lt;/p&gt;&lt;p style=&quot;margin:0px;margin-left:4px;&quot;&gt;+ performFly(): Unit&amp;nbsp;&lt;span style=&quot;background-color: initial;&quot;&gt;{ flyBehavior.fly() }&lt;/span&gt;&lt;/p&gt;&lt;p style=&quot;margin:0px;margin-left:4px;&quot;&gt;+ performQuack(): Unit { quackBehavior.quack() }&lt;br&gt;+ swim(): Unit { ... }&amp;nbsp;&lt;br&gt;&lt;/p&gt;" style="verticalAlign=top;align=left;overflow=fill;fontSize=12;fontFamily=Helvetica;html=1;rounded=0;shadow=0;comic=0;labelBackgroundColor=none;strokeWidth=1;fillColor=#dae8fc;strokeColor=#6c8ebf;" vertex="1" parent="1">
          <mxGeometry x="1180" y="470" width="280" height="160" as="geometry" />
        </mxCell>
        <mxCell id="-nk48S4TpL6KbgZUYX6O-31" style="rounded=0;orthogonalLoop=1;jettySize=auto;html=1;endSize=13;" edge="1" parent="1" source="-nk48S4TpL6KbgZUYX6O-29" target="-nk48S4TpL6KbgZUYX6O-23">
          <mxGeometry relative="1" as="geometry" />
        </mxCell>
        <mxCell id="-nk48S4TpL6KbgZUYX6O-33" value="Наследует" style="edgeLabel;html=1;align=center;verticalAlign=middle;resizable=0;points=[];" vertex="1" connectable="0" parent="-nk48S4TpL6KbgZUYX6O-31">
          <mxGeometry x="-0.0328" relative="1" as="geometry">
            <mxPoint y="5" as="offset" />
          </mxGeometry>
        </mxCell>
        <mxCell id="-nk48S4TpL6KbgZUYX6O-29" value="&lt;p style=&quot;margin:0px;margin-top:4px;text-align:center;&quot;&gt;&lt;b&gt;MallardDuck&lt;/b&gt;&lt;/p&gt;&lt;hr size=&quot;1&quot;&gt;&lt;p style=&quot;margin:0px;margin-left:4px;&quot;&gt;&lt;span style=&quot;background-color: initial;&quot;&gt;+ display(): Unit { ... }&lt;/span&gt;&lt;/p&gt;" style="verticalAlign=top;align=left;overflow=fill;fontSize=12;fontFamily=Helvetica;html=1;rounded=0;shadow=0;comic=0;labelBackgroundColor=none;strokeWidth=1;fillColor=#dae8fc;strokeColor=#6c8ebf;" vertex="1" parent="1">
          <mxGeometry x="1170" y="720" width="140" height="67" as="geometry" />
        </mxCell>
        <mxCell id="-nk48S4TpL6KbgZUYX6O-32" style="rounded=0;orthogonalLoop=1;jettySize=auto;html=1;endSize=13;" edge="1" parent="1" source="-nk48S4TpL6KbgZUYX6O-30" target="-nk48S4TpL6KbgZUYX6O-23">
          <mxGeometry relative="1" as="geometry" />
        </mxCell>
        <mxCell id="-nk48S4TpL6KbgZUYX6O-34" value="Наследует" style="edgeLabel;html=1;align=center;verticalAlign=middle;resizable=0;points=[];" vertex="1" connectable="0" parent="-nk48S4TpL6KbgZUYX6O-32">
          <mxGeometry x="0.2231" y="-3" relative="1" as="geometry">
            <mxPoint y="14" as="offset" />
          </mxGeometry>
        </mxCell>
        <mxCell id="-nk48S4TpL6KbgZUYX6O-30" value="&lt;p style=&quot;margin:0px;margin-top:4px;text-align:center;&quot;&gt;&lt;b&gt;RubberDuck&lt;/b&gt;&lt;br&gt;&lt;/p&gt;&lt;hr size=&quot;1&quot;&gt;&lt;p style=&quot;margin:0px;margin-left:4px;&quot;&gt;&lt;span style=&quot;background-color: initial;&quot;&gt;+ display(): Unit { ... }&lt;/span&gt;&lt;/p&gt;" style="verticalAlign=top;align=left;overflow=fill;fontSize=12;fontFamily=Helvetica;html=1;rounded=0;shadow=0;comic=0;labelBackgroundColor=none;strokeWidth=1;fillColor=#dae8fc;strokeColor=#6c8ebf;" vertex="1" parent="1">
          <mxGeometry x="1330" y="720" width="140" height="67" as="geometry" />
        </mxCell>
      </root>
    </mxGraphModel>
  </diagram>
</mxfile>
